<svg width="47" height="47" viewBox="0 0 47 47" fill="none" xmlns="http://www.w3.org/2000/svg">
<path d="M40.7921 15.6864L27.965 5.4247C25.4583 3.4272 21.5417 3.40762 19.0546 5.40512L6.22751 15.6864C4.38668 17.1551 3.27043 20.0926 3.66209 22.4034L6.12959 37.1693C6.69751 40.4789 9.77209 43.0835 13.1208 43.0835H33.8792C37.1888 43.0835 40.3221 40.4201 40.89 37.1497L43.3575 22.3839C43.71 20.0926 42.5938 17.1551 40.7921 15.6864ZM24.9688 35.2501C24.9688 36.053 24.3029 36.7189 23.5 36.7189C22.6971 36.7189 22.0313 36.053 22.0313 35.2501V29.3751C22.0313 28.5722 22.6971 27.9064 23.5 27.9064C24.3029 27.9064 24.9688 28.5722 24.9688 29.3751V35.2501Z" fill="#001017"/>
</svg>
